<svg width="961" height="686" viewBox="0 0 961 686" fill="none" xmlns="http://www.w3.org/2000/svg">
<rect x="249.5" width="10.25" height="517" fill="#A2C7FF"/>
<rect x="463.2" width="10.25" height="517" fill="#A2C7FF"/>
<circle cx="798" cy="163" r="163" fill="#A2C7FF" fill-opacity="0.4"/>
<path d="M631.756 514.199L622.894 544.001L613.124 541.095L628.049 490.904L637.428 493.693L634.998 501.862L635.619 502.046C637.564 499.732 640.007 498.135 642.948 497.255C645.911 496.381 649.277 496.505 653.045 497.626C656.466 498.643 659.247 500.252 661.39 502.454C663.54 504.635 664.905 507.341 665.485 510.572C666.065 513.803 665.74 517.488 664.509 521.627L655.015 553.553L645.245 550.647L654.389 519.898C655.471 516.26 655.368 513.136 654.082 510.524C652.802 507.891 650.507 506.082 647.196 505.098C644.93 504.424 642.769 504.315 640.713 504.77C638.679 505.233 636.868 506.259 635.281 507.85C633.721 509.425 632.547 511.542 631.756 514.199Z" fill="#A2C7FF"/>
<path d="M157.523 474.5H146.659C145.527 468.616 143.406 462.929 140.294 457.441C137.182 451.896 133.164 446.917 128.242 442.503C123.376 438.033 117.718 434.497 111.267 431.894C104.817 429.291 97.6879 427.99 89.8796 427.99C78.4502 427.99 67.926 431.045 58.3072 437.156C48.7449 443.21 41.0781 452.122 35.3068 463.891C29.5921 475.66 26.7347 490.06 26.7347 507.091C26.7347 524.235 29.5921 538.692 35.3068 550.461C41.0781 562.23 48.7449 571.141 58.3072 577.195C67.926 583.193 78.4502 586.192 89.8796 586.192C97.6879 586.192 104.817 584.919 111.267 582.373C117.718 579.77 123.376 576.262 128.242 571.848C133.164 567.378 137.182 562.371 140.294 556.826C143.406 551.281 145.527 545.566 146.659 539.682H157.523C156.278 546.698 153.873 553.573 150.309 560.306C146.801 567.039 142.161 573.15 136.39 578.638C130.675 584.07 123.913 588.398 116.105 591.624C108.353 594.792 99.6116 596.376 89.8796 596.376C75.3948 596.376 62.6357 592.699 51.6023 585.343C40.5689 577.931 31.9119 567.52 25.6314 554.11C19.4074 540.7 16.2955 525.027 16.2955 507.091C16.2955 489.155 19.4074 473.482 25.6314 460.072C31.9119 446.662 40.5689 436.279 51.6023 428.924C62.6357 421.511 75.3948 417.805 89.8796 417.805C99.6116 417.805 108.353 419.418 116.105 422.643C123.913 425.812 130.675 430.112 136.39 435.544C142.161 440.919 146.801 446.973 150.309 453.706C153.873 460.44 156.278 467.371 157.523 474.5Z" fill="#A2C7FF"/>
<path d="M152.909 544.057C148 544.057 143.716 542.932 140.057 540.682C136.398 538.432 133.557 535.284 131.534 531.239C129.511 527.193 128.5 522.466 128.5 517.057C128.5 511.625 129.511 506.875 131.534 502.807C133.557 498.739 136.398 495.58 140.057 493.33C143.716 491.08 148 489.955 152.909 489.955C157.818 489.955 162.102 491.08 165.761 493.33C169.42 495.58 172.261 498.739 174.284 502.807C176.307 506.875 177.318 511.625 177.318 517.057C177.318 522.466 176.307 527.193 174.284 531.239C172.261 535.284 169.42 538.432 165.761 540.682C162.102 542.932 157.818 544.057 152.909 544.057ZM152.943 535.5C156.125 535.5 158.761 534.659 160.852 532.977C162.943 531.295 164.489 529.057 165.489 526.261C166.511 523.466 167.023 520.386 167.023 517.023C167.023 513.682 166.511 510.614 165.489 507.818C164.489 505 162.943 502.739 160.852 501.034C158.761 499.33 156.125 498.477 152.943 498.477C149.739 498.477 147.08 499.33 144.966 501.034C142.875 502.739 141.318 505 140.295 507.818C139.295 510.614 138.795 513.682 138.795 517.023C138.795 520.386 139.295 523.466 140.295 526.261C141.318 529.057 142.875 531.295 144.966 532.977C147.08 534.659 149.739 535.5 152.943 535.5ZM198.889 511.909V543H188.696V490.636H198.48V499.159H199.128C200.332 496.386 202.219 494.159 204.787 492.477C207.378 490.795 210.639 489.955 214.571 489.955C218.139 489.955 221.264 490.705 223.946 492.205C226.628 493.682 228.707 495.886 230.185 498.818C231.662 501.75 232.401 505.375 232.401 509.693V543H222.207V510.92C222.207 507.125 221.219 504.159 219.241 502.023C217.264 499.864 214.548 498.784 211.094 498.784C208.73 498.784 206.628 499.295 204.787 500.318C202.969 501.341 201.526 502.841 200.457 504.818C199.412 506.773 198.889 509.136 198.889 511.909ZM270.514 490.636V498.818H241.912V490.636H270.514ZM249.582 478.091H259.776V527.625C259.776 529.602 260.071 531.091 260.662 532.091C261.253 533.068 262.014 533.739 262.946 534.102C263.901 534.443 264.935 534.614 266.048 534.614C266.866 534.614 267.582 534.557 268.196 534.443C268.81 534.33 269.287 534.239 269.628 534.17L271.469 542.591C270.878 542.818 270.037 543.045 268.946 543.273C267.855 543.523 266.491 543.659 264.855 543.682C262.173 543.727 259.673 543.25 257.355 542.25C255.037 541.25 253.162 539.705 251.73 537.614C250.298 535.523 249.582 532.898 249.582 529.739V478.091ZM281.79 543V490.636H291.642V498.955H292.188C293.142 496.136 294.824 493.92 297.233 492.307C299.665 490.67 302.415 489.852 305.483 489.852C306.119 489.852 306.869 489.875 307.733 489.92C308.619 489.966 309.312 490.023 309.812 490.091V499.841C309.403 499.727 308.676 499.602 307.631 499.466C306.585 499.307 305.54 499.227 304.494 499.227C302.085 499.227 299.938 499.739 298.051 500.761C296.188 501.761 294.71 503.159 293.619 504.955C292.528 506.727 291.983 508.75 291.983 511.023V543H281.79ZM318.634 543V490.636H328.827V543H318.634ZM323.781 482.557C322.009 482.557 320.486 481.966 319.213 480.784C317.963 479.58 317.338 478.148 317.338 476.489C317.338 474.807 317.963 473.375 319.213 472.193C320.486 470.989 322.009 470.386 323.781 470.386C325.554 470.386 327.065 470.989 328.315 472.193C329.588 473.375 330.224 474.807 330.224 476.489C330.224 478.148 329.588 479.58 328.315 480.784C327.065 481.966 325.554 482.557 323.781 482.557ZM343.358 543V473.182H353.551V499.125H354.165C354.756 498.034 355.608 496.773 356.722 495.341C357.835 493.909 359.381 492.659 361.358 491.591C363.335 490.5 365.949 489.955 369.199 489.955C373.426 489.955 377.199 491.023 380.517 493.159C383.835 495.295 386.438 498.375 388.324 502.398C390.233 506.42 391.188 511.261 391.188 516.92C391.188 522.58 390.244 527.432 388.358 531.477C386.472 535.5 383.881 538.602 380.585 540.784C377.29 542.943 373.528 544.023 369.301 544.023C366.119 544.023 363.517 543.489 361.494 542.42C359.494 541.352 357.926 540.102 356.79 538.67C355.653 537.239 354.778 535.966 354.165 534.852H353.312V543H343.358ZM353.347 516.818C353.347 520.5 353.881 523.727 354.949 526.5C356.017 529.273 357.563 531.443 359.585 533.011C361.608 534.557 364.085 535.33 367.017 535.33C370.062 535.33 372.608 534.523 374.653 532.909C376.699 531.273 378.244 529.057 379.29 526.261C380.358 523.466 380.892 520.318 380.892 516.818C380.892 513.364 380.369 510.261 379.324 507.511C378.301 504.761 376.756 502.591 374.688 501C372.642 499.409 370.085 498.614 367.017 498.614C364.062 498.614 361.562 499.375 359.517 500.898C357.494 502.42 355.96 504.545 354.915 507.273C353.869 510 353.347 513.182 353.347 516.818ZM435.804 521.284V490.636H446.031V543H436.009V533.932H435.463C434.259 536.727 432.327 539.057 429.668 540.92C427.031 542.761 423.747 543.682 419.815 543.682C416.452 543.682 413.474 542.943 410.884 541.466C408.315 539.966 406.293 537.75 404.815 534.818C403.361 531.886 402.634 528.261 402.634 523.943V490.636H412.827V522.716C412.827 526.284 413.815 529.125 415.793 531.239C417.77 533.352 420.338 534.409 423.497 534.409C425.406 534.409 427.304 533.932 429.19 532.977C431.099 532.023 432.679 530.58 433.929 528.648C435.202 526.716 435.827 524.261 435.804 521.284ZM484.17 490.636V498.818H455.568V490.636H484.17ZM463.239 478.091H473.432V527.625C473.432 529.602 473.727 531.091 474.318 532.091C474.909 533.068 475.67 533.739 476.602 534.102C477.557 534.443 478.591 534.614 479.705 534.614C480.523 534.614 481.239 534.557 481.852 534.443C482.466 534.33 482.943 534.239 483.284 534.17L485.125 542.591C484.534 542.818 483.693 543.045 482.602 543.273C481.511 543.523 480.148 543.659 478.511 543.682C475.83 543.727 473.33 543.25 471.011 542.25C468.693 541.25 466.818 539.705 465.386 537.614C463.955 535.523 463.239 532.898 463.239 529.739V478.091Z" fill="#A2C7FF"/>
<path d="M522.994 540.806C518.79 534.835 516.588 528.487 516.387 521.763C516.207 515.069 517.879 508.551 521.404 502.211C524.958 495.849 530.246 490.197 537.267 485.254C544.349 480.269 551.483 477.177 558.671 475.976C565.889 474.755 572.603 475.368 578.814 477.817C585.077 480.274 590.31 484.489 594.513 490.46C598.716 496.431 600.908 502.764 601.088 509.458C601.268 516.152 599.581 522.68 596.027 529.042C592.493 535.433 587.186 541.121 580.105 546.106C573.083 551.049 565.979 554.121 558.791 555.321C551.633 556.501 544.923 555.862 538.661 553.404C532.42 550.977 527.197 546.777 522.994 540.806ZM530.33 535.641C533.71 540.442 537.862 543.6 542.788 545.114C547.713 546.628 552.923 546.73 558.418 545.42C563.934 544.14 569.272 541.683 574.433 538.05C579.594 534.417 583.722 530.209 586.818 525.427C589.935 520.675 591.626 515.715 591.892 510.546C592.158 505.378 590.601 500.394 587.222 495.593C583.863 490.822 579.696 487.675 574.719 486.152C569.764 484.659 564.514 484.563 558.968 485.864C553.443 487.196 548.1 489.678 542.939 493.311C537.778 496.944 533.654 501.126 530.567 505.857C527.501 510.618 525.851 515.572 525.615 520.719C525.379 525.866 526.951 530.841 530.33 535.641Z" fill="#A2C7FF"/>
<path d="M487.37 545.925L495.572 494.208L505.639 495.805L497.438 547.522L487.37 545.925ZM501.922 487.035C500.171 486.757 498.76 485.935 497.688 484.568C496.642 483.183 496.249 481.671 496.509 480.032C496.772 478.371 497.614 477.055 499.033 476.083C500.479 475.093 502.077 474.737 503.828 475.014C505.579 475.292 506.977 476.124 508.023 477.509C509.095 478.876 509.499 480.389 509.236 482.05C508.976 483.689 508.123 485.004 506.678 485.994C505.258 486.965 503.673 487.312 501.922 487.035Z" fill="#A2C7FF"/>
<rect x="188.7" y="543" width="10.2" height="143" fill="#A2C7FF"/>
<rect x="436" y="543" width="10" height="143" fill="#A2C7FF"/>
<circle cx="528" cy="438" r="27" fill="#A2C7FF" fill-opacity="0.8"/>
<circle cx="602" cy="352" r="67" fill="#A2C7FF" fill-opacity="0.6"/>
</svg>
